<!-- Copyright 2000-2021 JetBrains s.r.o. Use of this source code is governed by the Apache 2.0 license that can be found in the LICENSE file. -->
<svg xmlns="http://www.w3.org/2000/svg" xmlns:xlink="http://www.w3.org/1999/xlink" width="16" height="16" viewBox="0 0 16 16">
  <defs>
    <rect id="abstractmethod-a" width="8" height="14"/>
  </defs>
  <g fill="none" fill-rule="evenodd">
    <path fill="#9AA7B0" fill-opacity=".8" d="M3 3.1055C1.764 4.3685 1 6.0935 1 8.0005 1 9.9065 1.764 11.6315 3 12.8945L3 3.1055zM13 3.1055L13 12.8945C14.236 11.6315 15 9.9065 15 8.0005 15 6.0935 14.236 4.3675 13 3.1055"/>
    <g transform="translate(4 1)">
      <mask id="abstractmethod-b" fill="#fff">
        <use xlink:href="#abstractmethod-a"/>
      </mask>
      <g mask="url(#abstractmethod-b)">
        <g transform="translate(-4 -1)">
          <path fill="#F98B9E" fill-opacity=".6" d="M15,8 C15,11.866 11.866,15 8,15 C4.134,15 1,11.866 1,8 C1,4.134 4.134,1 8,1 C11.866,1 15,4.134 15,8"/>
          <path fill="#231F20" fill-opacity=".7" d="M6.9922,2 C6.9912,1.251 6.63513184,0.0003 4.98162842,0.0003 C4.11224365,0.0003 3.6576,0.502 3.5986,0.6 C3.28363037,0.194116211 2.94411621,0.0003 2.1,0.0003 C1.63194173,0.0003 1.26527507,0.0999436667 1,0.299231 L1,0.0003 L0,0.0003 L0,5.0003 L1,5.0003 C0.966666667,3.1563 0.966666667,2.1562 1,2 C1.05,1.7657 1.05,1 2,1 C2.95,1 2.999,1.537 3,2 L3,5.0003 L4,5.0003 L4,2 C4,1.686 3.95911952,1 4.98162842,1 C6.00413731,1 6.00413731,1.73961181 6.00469971,2 C6.00469971,2.79041884 6.00469971,3.38323296 6.00469971,3.77844238 C6.00469971,4.0499663 6.00469971,4.45725217 6.00469971,5.0003 L6.9972,5.0003 L6.9922,2 Z" transform="translate(5 6)"/>
        </g>
      </g>
    </g>
  </g>
</svg>
