<!-- Copyright © 2000–2024 JetBrains s.r.o. -->
<svg width="16" height="16" viewBox="0 0 64 64" xmlns="http://www.w3.org/2000/svg">
  <path fill="#9aa7b0" d="M24.78 56h2.09l-4.73-13H20l-4.73 13h2.09l1.2-3.53h5.02l1.2 3.53Zm-5.68-5.13 1.95-5.74h.05l1.95 5.74h-3.94ZM33.13 43H28.3v13h1.99v-4.46h2.84c2.25.13 4.17-1.59 4.3-3.84v-.45A4.053 4.053 0 0 0 33.57 43zm2.28 4.29a2.444 2.444 0 0 1-2.77 2.58H30.3v-5.19h2.34c1.8 0 2.77.97 2.77 2.58v.02ZM46.84 56h2.47l-5.36-7.25L48.87 43h-2.36l-5.27 6.23h-.05V43H39.2v13h1.99v-4.35l1.33-1.53L46.83 56Z"/>
  <path fill="#3DDC84" d="m46.17 15.2 4.67-8.1c.38-.65.16-1.45-.4-1.85-.22-.16-.49-.25-.8-.26-.5 0-.97.27-1.22.7l-4.75 8.23a28.542 28.542 0 0 0-11.66-2.39c-4.01-.03-7.99.78-11.66 2.39L15.6 5.69c-.26-.46-.74-.71-1.23-.7-.23 0-.46.06-.68.19-.71.41-.89 1.29-.51 1.92l4.67 8.1C9.08 20.23 4.33 29.51 4.02 37h56c-.31-7.49-5.06-16.78-13.83-21.8ZM18 30c-1.66 0-3-1.34-3-3s1.34-3 3-3 3 1.34 3 3-1.34 3-3 3m28 0c-1.66 0-3-1.34-3-3s1.34-3 3-3 3 1.34 3 3-1.34 3-3 3" opacity=".6"/>
</svg>
