<svg xmlns="http://www.w3.org/2000/svg" width="16" height="16" viewBox="0 0 16 16">
  <g fill="none" fill-rule="evenodd">
    <path fill="#F98B9E" fill-opacity=".6" d="M14.7279065,9.93922898 L13.2249195,9.85558898 L11.9495635,6.5 L11.0406489,6.5 L9.77115318,9.85558898 L6.01939023,10.0717163 L6.01939023,10.8769531 L8.70388068,13.140316 L8.21285589,14.9968255 C8.14216225,14.9989368 8.07120528,15 8,15 C4.13400675,15 1,11.8659932 1,8 C1,4.13400675 4.13400675,1 8,1 C11.8659932,1 15,4.13400675 15,8 C15,8.6727991 14.905082,9.32342891 14.7279065,9.93922898 Z"/>
    <polygon fill="#9AA7B0" points="11.498 14.163 8.718 15.956 9.564 12.758 7 10.668 10.303 10.484 11.498 7.4 12.693 10.484 15.996 10.668 13.432 12.758 14.278 15.956"/>
    <path fill="#231F20" fill-opacity=".7" d="M10.7568959,7.25002881 C10.6072458,7.10510886 10.3670933,7 9.98162842,7 C8.95911952,7 9,7.686 9,8 L9,9.9000127 L8,9.95761957 L8,8 C7.999,7.537 7.95,7 7,7 C6.05,7 6.05,7.7657 6,8 C5.96666667,8.1562 5.96666667,9.1563 6,11.0003 L5,11.0003 L5,6.0003 L6,6.0003 L6,6.299231 C6.26527507,6.09994367 6.63194173,6.0003 7.1,6.0003 C7.94411621,6.0003 8.28363037,6.19411621 8.5986,6.6 C8.6576,6.502 9.11224365,6.0003 9.98162842,6.0003 C10.6518091,6.0003 11.1088526,6.20575975 11.415504,6.5 L11.0406489,6.5 L10.7568959,7.25002881 Z"/>
  </g>
</svg>
