<svg xmlns="http://www.w3.org/2000/svg" width="16" height="16" viewBox="0 0 16 16">
  <g fill="none" fill-rule="evenodd">
    <polygon fill="#9AA7B0" fill-opacity=".8" points="7 1 3 5 7 5"/>
    <path fill="#9AA7B0" fill-opacity=".8" d="M8,1 L8,6 L3,6 L3,15 L13,15 L13,1 L8,1 Z M12,14 L4,14 L4,7 L12,7 L12,14 Z"/>
    <g transform="translate(5 8)">
      <path fill="#62B543" fill-opacity=".7" d="M6,5 L0,5 L0,3.33333333 C0,3.33333333 1.76880857,1.7536 2.57142857,2.5 C3.5627607,3.31115884 4.73773287,3.88232587 6,4.16666667 L6,5 Z"/>
      <path fill="#40B6E0" fill-opacity=".7" d="M0,0 L6,0 L6,3.33333333 C4.73770486,3.04906817 3.56271528,2.47789268 2.57142857,1.66666667 C1.76869714,0.920408333 1.66533454e-16,2.5 1.66533454e-16,2.5 L0,0 Z M4.5,2 C4.77614237,2 5,1.77614237 5,1.5 C5,1.22385763 4.77614237,1 4.5,1 C4.22385763,1 4,1.22385763 4,1.5 C4,1.77614237 4.22385763,2 4.5,2 Z"/>
    </g>
  </g>
</svg>
