<!-- Copyright 2000-2021 JetBrains s.r.o. Use of this source code is governed by the Apache 2.0 license that can be found in the LICENSE file. -->
<svg xmlns="http://www.w3.org/2000/svg" width="16" height="16" viewBox="0 0 16 16">
  <g fill="none" fill-rule="evenodd">
    <polygon fill="#B99BF8" fill-opacity=".7" points="1 16 16 16 16 9 1 9"/>
    <polygon fill="#9AA7B0" fill-opacity=".8" points="7 1 3 5 7 5"/>
    <polygon fill="#9AA7B0" fill-opacity=".8" points="8 1 8 6 3 6 3 8 13 8 13 1"/>
    <polygon fill="#231F20" fill-opacity=".7" points="0 0 .936 0 2.5 2 3.979 0 5 0 5 5 4 5 4 1.7 2.5 3.5 1 1.7 1 5 0 5" transform="translate(3 10)"/>
    <polygon fill="#231F20" fill-opacity=".7" points="1 1.001 3 1.001 3 0 0 0 0 5 1 5 1 3 2.8 3 2.8 2 1 2" transform="translate(9 10)"/>
  </g>
</svg>
