<!-- Copyright 2000-2023 JetBrains s.r.o. and contributors. Use of this source code is governed by the Apache 2.0 license. -->
<svg width="16" height="16" viewBox="0 0 16 16" fill="none" xmlns="http://www.w3.org/2000/svg">
<path fill-rule="evenodd" clip-rule="evenodd" d="M6.48057 5.70711L6.26727 7.20016C6.19763 7.68767 5.90122 8.07205 5.53634 8.29289C4.78518 8.74751 4.39847 9.41436 4.19857 10H11.8015C11.6016 9.41434 11.2149 8.74746 10.4637 8.29284C10.0988 8.07201 9.80236 7.68762 9.73272 7.20009L9.51943 5.70711C9.39072 4.80611 10.0899 4 11 4V3L5 3V4C5.91014 4 6.60928 4.80611 6.48057 5.70711ZM5.27732 7.05873C5.25463 7.2176 5.15585 7.35428 5.01856 7.43737C3.84968 8.14481 3.35768 9.22759 3.15058 10.0138C3.0099 10.5478 3.44776 11 4.00005 11H12C12.5523 11 12.9902 10.5478 12.8495 10.0138C12.6424 9.22757 12.1504 8.14475 10.9814 7.43732C10.8442 7.35423 10.7454 7.21754 10.7227 7.05867L10.5094 5.56569C10.4667 5.26712 10.6984 5 11 5C11.5523 5 12 4.55228 12 4V3C12 2.44772 11.5523 2 11 2H5C4.44772 2 4 2.44772 4 3V4C4 4.55228 4.44772 5 5 5C5.3016 5 5.53327 5.26712 5.49062 5.56569L5.27732 7.05873Z" fill="#CED0D6"/>
<path fill-rule="evenodd" clip-rule="evenodd" d="M6.48073 5.70711L6.26744 7.20016C6.19779 7.68767 5.90138 8.07205 5.5365 8.29289C4.78534 8.74751 4.39863 9.41436 4.19873 10H11.8017C11.6018 9.41434 11.2151 8.74746 10.4639 8.29284C10.099 8.07201 9.80253 7.68762 9.73288 7.20009L9.5196 5.70711C9.39088 4.80611 10.09 4 11.0002 4V3L5.00016 3V4C5.91031 4 6.60944 4.80611 6.48073 5.70711Z" fill="#43454A"/>
<path d="M7.5 11H8.5V14.5C8.5 14.7761 8.27614 15 8 15V15C7.72386 15 7.5 14.7761 7.5 14.5V11Z" fill="#CED0D6"/>
</svg>
