<svg xmlns="http://www.w3.org/2000/svg" width="16" height="16" viewBox="0 0 16 16">
  <g fill="none" fill-rule="evenodd">
    <path fill="#40B6E0" fill-opacity=".6" d="M14.8491776,9.45216878 C14.296133,9.16332374 13.6671397,9 13,9 C10.790861,9 9,10.790861 9,13 C9,13.6671397 9.16332374,14.296133 9.45216878,14.8491776 C8.98367536,14.9480154 8.49790863,15 8,15 C4.134,15 1,11.866 1,8 C1,4.134 4.134,1 8,1 C11.866,1 15,4.134 15,8 C15,8.49790863 14.9480154,8.98367536 14.8491776,9.45216878 Z"/>
    <path fill="#231F20" fill-opacity=".7" d="M10,9.28253174 C9.53,9.74153174 9.028,9.978 8.1,10 C7.061,10.022 6,9.2794 6,8.0004 C6,6.7124 6.971,6 8.1,6 C8.94833171,6 9.54833171,6.18475342 9.9,6.55426025 L10.5162,5.83673096 C9.8293999,5.2701752 9.28826904,5.0004 8.0982,5.0004 C6.3402,5.0004 5.0002,6.3584 5.0002,8.0004 C5.0002,9.6824 6.3642,11.0004 8.0022,11.0004 C9.29284668,11.0004 10.0232,10.5934 10.6162,9.9814 C10.2054,9.51548783 10,9.28253174 10,9.28253174 Z"/>
    <circle cx="13" cy="13" r="3" fill="#9AA7B0"/>
  </g>
</svg>
