<svg xmlns="http://www.w3.org/2000/svg" width="16" height="16" viewBox="0 0 16 16">
  <g fill="none" fill-rule="evenodd">
    <polygon fill="#9AA7B0" fill-opacity=".8" points="7.001 1 3.001 5 7.001 5"/>
    <path fill="#9AA7B0" fill-opacity=".8" d="M9,13 L9,15 L3.001,15 L3.001,6 L7.001,6 L8.001,6 L8.001,5 L8.001,1 L13.001,1 L13.001,4.00000012 C12.2718385,4 11.5891207,4.19456794 11.001,4.53455051 L11.001,3 L9.001,3 L9.001,7 L5.001,7 L5.001,13 L9,13 Z"/>
    <polygon fill="#9AA7B0" fill-opacity=".8" points="6.001 9 9.002 9 9.002 8 6.001 8"/>
    <polygon fill="#9AA7B0" fill-opacity=".8" points="6.001 11.001 9.002 11.001 9.002 10 6.001 10"/>
    <path fill="#40B6E0" d="M14,13 L16,13 L16,15 L14,15 L14,16 L12,16 L12,10.8292943 C10.8348076,10.4174579 10,9.30621883 10,8 C10,6.34314575 11.3431458,5 13,5 C14.6568542,5 16,6.34314575 16,8 C16,9.30621883 15.1651924,10.4174579 14,10.8292943 L14,13 Z M13,9 C13.5522847,9 14,8.55228475 14,8 C14,7.44771525 13.5522847,7 13,7 C12.4477153,7 12,7.44771525 12,8 C12,8.55228475 12.4477153,9 13,9 Z" transform="matrix(-1 0 0 1 26 0)"/>
  </g>
</svg>
