<!-- Copyright 2000-2021 JetBrains s.r.o. Use of this source code is governed by the Apache 2.0 license that can be found in the LICENSE file. -->
<svg xmlns="http://www.w3.org/2000/svg" width="16" height="16" viewBox="0 0 16 16">
  <g fill="#6E6E6E" fill-rule="evenodd" transform="translate(3 3)">
    <g transform="translate(1.9 7.8)">
      <path d="M2.56666667 5.13333333C1.14913581 5.13333333 0 3.98419752 0 2.56666667 0 1.14913581 1.14913581 0 2.56666667 0 3.98419752 0 5.13333333 1.14913581 5.13333333 2.56666667 5.13333333 3.98419752 3.98419752 5.13333333 2.56666667 5.13333333zM2.56499982 3.92999983C3.31886851 3.92999983 3.92999983 3.31886851 3.92999983 2.56499982 3.92999983 1.81113113 3.31886851 1.19999981 2.56499982 1.19999981 1.81113113 1.19999981 1.19999981 1.81113113 1.19999981 2.56499982 1.19999981 3.31886851 1.81113113 3.92999983 2.56499982 3.92999983zM8.43333333 5.13333333C7.01580248 5.13333333 5.86666667 3.98419752 5.86666667 2.56666667 5.86666667 1.14913581 7.01580248 0 8.43333333 0 9.85086419 0 11 1.14913581 11 2.56666667 11 3.98419752 9.85086419 5.13333333 8.43333333 5.13333333zM8.4349997 3.92999983C9.18886839 3.92999983 9.79999971 3.31886851 9.79999971 2.56499982 9.79999971 1.81113113 9.18886839 1.19999981 8.4349997 1.19999981 7.68113102 1.19999981 7.06999969 1.81113113 7.06999969 2.56499982 7.06999969 3.31886851 7.68113102 3.92999983 8.4349997 3.92999983z"/>
      <rect width="2.2" height="1" x="4.4" y="1.2"/>
    </g>
    <rect width="10" height="2"/>
    <path d="M9.665909,7 C8.7492349,7.22410817 7.97417718,7.80926499 7.5,8.59620631 C7.02582282,7.80926499 6.2507651,7.22410817 5.334091,7 L9.665909,7 Z M3.665909,7 C2.5985262,7.26095338 1.72315345,8.01143327 1.29123041,9 L0,9 L0,7 L3.665909,7 Z"/>
    <rect width="10" height="2" y="3.5"/>
  </g>
</svg>
