<svg width="16" height="16" viewBox="0 0 16 16" fill="none" xmlns="http://www.w3.org/2000/svg">
<path fill-rule="evenodd" clip-rule="evenodd" d="M10.355 12.5181C10.7986 12.3405 11.2721 12.2494 11.75 12.25C12.2419 12.25 12.7125 12.345 13.1425 12.5169L14.0188 11L14.56 11.3125L13.7025 12.7975C14.2518 13.1322 14.7056 13.6026 15.0204 14.1635C15.3352 14.7243 15.5004 15.3568 15.5 16H8C7.99962 15.3572 8.1646 14.7251 8.47906 14.1645C8.79352 13.6039 9.2469 13.1335 9.79563 12.7987L8.9375 11.3125L9.47875 11L10.355 12.5181ZM9.875 14.125V14.75H10.5V14.125H9.875ZM13 14.125V14.75H13.625V14.125H13Z" fill="#3DDC84"/>
<path fill-rule="evenodd" clip-rule="evenodd" d="M11.4161 1L12.7822 2.3V11.6125C12.4499 11.5388 12.1045 11.5 11.75 11.5C11.3783 11.5 11.0165 11.5427 10.6694 11.6235L9.78979 10.1H11.4161V2.3H4.5858V10.1H9.55885L8 11L8.85619 12.483C8.32633 12.8906 7.88491 13.4075 7.56565 14H4.5858L3.21973 12.7V2.3L4.5858 1H11.4161Z" fill="#9AA7B0" fill-opacity="0.8"/>
</svg>
