<!-- Copyright 2000-2024 JetBrains s.r.o. and contributors. Use of this source code is governed by the Apache 2.0 license. -->
<svg width="16" height="16" viewBox="0 0 16 16" fill="none" xmlns="http://www.w3.org/2000/svg">
<path fill-rule="evenodd" clip-rule="evenodd" d="M6.83691 14C6.51331 13.7057 6.22846 13.3695 5.99095 13H2V8H5V10H2.0004V11H5.24861C5.21657 10.7713 5.2 10.5376 5.2 10.3C5.2 9.03543 5.66945 7.88051 6.44359 7H6V5H10V5.30393C10.0663 5.30132 10.133 5.3 10.2 5.3C10.4723 5.3 10.7395 5.32177 11 5.36366V5H14V7.05024C14.4541 7.58068 14.799 8.20732 15 8.89536V2H1V14H6.83691ZM5 5V7H2V5H5Z" fill="#7F8B91"/>
<path fill-rule="evenodd" clip-rule="evenodd" d="M10.2334 14.1667C8.11627 14.1667 6.40002 12.4504 6.40002 10.3333C6.40002 8.21624 8.11627 6.5 10.2334 6.5C12.3504 6.5 14.0667 8.21624 14.0667 10.3333C14.0667 11.1096 13.8359 11.8321 13.4393 12.4357L15.8948 14.8912L14.8575 15.9286L12.4148 13.4859C11.7956 13.9151 11.0438 14.1667 10.2334 14.1667ZM10.2334 12.8333C11.6141 12.8333 12.7334 11.714 12.7334 10.3333C12.7334 8.95262 11.6141 7.83333 10.2334 7.83333C8.85265 7.83333 7.73336 8.95262 7.73336 10.3333C7.73336 11.714 8.85265 12.8333 10.2334 12.8333Z" fill="#7F8B91"/>
</svg>
