<!-- Copyright 2000-2022 JetBrains s.r.o. and contributors. Use of this source code is governed by the Apache 2.0 license. -->
<svg width="16" height="16" viewBox="0 0 16 16" fill="none" xmlns="http://www.w3.org/2000/svg">
<path fill-rule="evenodd" clip-rule="evenodd" d="M3 9V15H4V12.5H6.5V11.5H4V10H7V9H3Z" fill="#6E6E6E"/>
<path fill-rule="evenodd" clip-rule="evenodd" d="M7 7H3V1H7V2H4V3.4987H6.5V4.4987H4V6H7V7Z" fill="#6E6E6E"/>
<path fill-rule="evenodd" clip-rule="evenodd" d="M11.7085 4.41989H10.0005V6.06589H11.7855C12.5055 6.06589 12.9425 5.78289 12.9425 5.24189V5.22589C12.9425 4.71989 12.5395 4.41989 11.7085 4.41989ZM12.6085 2.69689C12.6085 2.22589 12.2305 1.93489 11.5545 1.93489H10.0005V3.52789H11.4785C12.1545 3.52789 12.6085 3.26289 12.6085 2.71389V2.69689ZM9.0005 0.999893H11.6915C12.3775 0.999893 12.9175 1.18889 13.2605 1.53189C13.5255 1.79689 13.6625 2.12289 13.6625 2.52489V2.54289C13.6625 3.26289 13.2515 3.64889 12.8065 3.87989C13.5085 4.11989 13.9975 4.52389 13.9975 5.33689V5.35489C13.9975 6.42589 13.1135 6.99989 11.7765 6.99989H9.0005V0.999893Z" fill="#6E6E6E"/>
<path d="M12.4641 10.7801L12.4641 10.7802C12.5812 11.1201 12.6407 11.5259 12.6407 11.9986C12.6407 12.4684 12.5812 12.8726 12.4642 13.2126C12.3471 13.5528 12.1817 13.808 11.9711 13.9835C11.7616 14.1581 11.5151 14.2456 11.2279 14.2456C10.9408 14.2456 10.6944 14.1581 10.4849 13.9837C10.2741 13.8052 10.1087 13.5485 9.99161 13.2083C9.87458 12.8683 9.8151 12.4627 9.8151 11.99C9.8151 11.5173 9.87458 11.1117 9.99161 10.7717C10.1087 10.4315 10.2744 10.1761 10.485 10.0006L10.4851 10.0005C10.6947 9.82317 10.941 9.7344 11.2279 9.7344C11.5147 9.7344 11.7611 9.82317 11.9707 10.0005C12.1814 10.1788 12.3469 10.4369 12.4641 10.7801ZM9.9245 14.7859L9.92461 14.786C10.2968 15.048 10.7309 15.1782 11.2236 15.1782C11.7191 15.1782 12.1545 15.0481 12.5267 14.7861L12.5268 14.7861C12.9011 14.5216 13.186 14.1483 13.3827 13.6699C13.5822 13.1917 13.6808 12.634 13.6808 11.9986C13.6808 11.3604 13.5822 10.7999 13.3828 10.3189C13.1861 9.83765 12.9013 9.46286 12.5269 9.19835C12.1547 8.93334 11.7192 8.8018 11.2236 8.8018C10.7307 8.8018 10.2967 8.93342 9.9245 9.1984C9.553 9.46291 9.26818 9.83787 9.06872 10.3189L9.06867 10.319C8.87215 10.8001 8.775 11.3605 8.775 11.9986C8.775 12.6339 8.87226 13.1917 9.06883 13.67L9.06888 13.6701C9.26838 14.1483 9.55311 14.5215 9.9245 14.7859Z" fill="#6E6E6E" stroke="#6E6E6E" stroke-width="0.05"/>
</svg>
