<!-- Copyright 2000-2021 JetBrains s.r.o. Use of this source code is governed by the Apache 2.0 license that can be found in the LICENSE file. -->
<svg width="16" height="16" viewBox="0 0 16 16" fill="none" xmlns="http://www.w3.org/2000/svg">
<g id="matchCaseHovered">
<g id="Cc">
<path d="M8.77476 11.8297C8.32279 12.2816 7.83717 12.623 7.31789 12.8538C6.80823 13.075 6.19279 13.1856 5.47157 13.1856C4.17337 13.1856 3.10116 12.7144 2.25492 11.772C1.41831 10.8296 1 9.5939 1 8.06491V7.93509C1 6.4061 1.42792 5.17041 2.28377 4.22802C3.13962 3.27601 4.23588 2.8 5.57254 2.8C6.81304 2.8 7.8564 3.18465 8.70263 3.95395L7.72178 5.64161C7.01979 5.0454 6.3178 4.7473 5.61581 4.7473C4.89459 4.7473 4.30319 5.03098 3.84161 5.59834C3.38964 6.1657 3.16366 6.935 3.16366 7.90624V8.05049C3.16366 9.04096 3.38964 9.81988 3.84161 10.3872C4.29357 10.9546 4.88978 11.2383 5.63024 11.2383C6.35146 11.2383 7.06787 10.9306 7.77947 10.3151L8.77476 11.8297Z" fill="#7F8B91" fill-opacity="0.9"/>
<path d="M15.6304 12.1182C15.2842 12.474 14.914 12.7432 14.5197 12.9259C14.135 13.1086 13.6542 13.2 13.0773 13.2C12.0483 13.2 11.2021 12.8346 10.5386 12.1037C9.87504 11.3633 9.54327 10.4209 9.54327 9.27656V9.11789C9.54327 7.97356 9.87984 7.03116 10.553 6.29071C11.2261 5.55025 12.0772 5.18003 13.1061 5.18003C14.135 5.18003 14.962 5.50217 15.5871 6.14646L14.6639 7.67545C14.1927 7.22349 13.6927 6.9975 13.1638 6.9975C12.7022 6.9975 12.3224 7.18983 12.0243 7.57448C11.7262 7.95913 11.5771 8.46398 11.5771 9.08904V9.26214C11.5771 9.90643 11.7262 10.4209 12.0243 10.8055C12.332 11.1902 12.7359 11.3825 13.2359 11.3825C13.736 11.3825 14.236 11.1565 14.7361 10.7046L15.6304 12.1182Z" fill="#7F8B91" fill-opacity="0.9"/>
</g>
</g>
</svg>
