<!-- Copyright 2000-2021 JetBrains s.r.o. Use of this source code is governed by the Apache 2.0 license that can be found in the LICENSE file. -->
<svg width="16" height="16" viewBox="0 0 16 16" fill="none" xmlns="http://www.w3.org/2000/svg">
<path d="M8.00122 2C8.44653 2 8.75122 2.30469 8.75122 2.75781V10.1016L8.69653 11.4141L10.384 9.52344L11.5481 8.38281C11.6809 8.24219 11.8684 8.16406 12.0793 8.16406C12.4856 8.16406 12.7903 8.46875 12.7903 8.88281C12.7903 9.08594 12.72 9.26562 12.5559 9.42969L8.56372 13.4375C8.40747 13.5938 8.21216 13.6797 8.00122 13.6797C7.7981 13.6797 7.60278 13.5938 7.44653 13.4375L3.45435 9.42969C3.2981 9.26562 3.21997 9.08594 3.21997 8.88281C3.21997 8.46875 3.52466 8.16406 3.93091 8.16406C4.14185 8.16406 4.32935 8.24219 4.46216 8.38281L5.62622 9.52344L7.31372 11.4219L7.25903 10.1016V2.75781C7.25903 2.30469 7.56372 2 8.00122 2Z" fill="#6E6E6E"/>
</svg>
