<svg xmlns="http://www.w3.org/2000/svg" width="16" height="16" viewBox="0 0 16 16">
  <g fill="none" fill-rule="evenodd">
    <g fill="#9AA7B0" transform="translate(6.4 6.5)">
      <rect width="1.467" height="4.162" x="6.771" y="5.357" transform="rotate(-45 7.505 7.438)"/>
      <path d="M3.83333333,7.66666667 C1.71624179,7.66666667 -4e-16,5.95042487 -4e-16,3.83333333 C-4e-16,1.71624179 1.71624179,0 3.83333333,0 C5.95042487,0 7.66666667,1.71624179 7.66666667,3.83333333 C7.66666667,5.95042487 5.95042487,7.66666667 3.83333333,7.66666667 Z M3.83333333,6.33333333 C5.21404521,6.33333333 6.33333333,5.21404521 6.33333333,3.83333333 C6.33333333,2.45262146 5.21404521,1.33333333 3.83333333,1.33333333 C2.45262146,1.33333333 1.33333333,2.45262146 1.33333333,3.83333333 C1.33333333,5.21404521 2.45262146,6.33333333 3.83333333,6.33333333 Z"/>
    </g>
    <path fill="#F98B9E" fill-opacity=".6" d="M14.9590017,8.76201856 C14.310257,6.75310534 12.424824,5.3 10.2,5.3 C7.43857625,5.3 5.2,7.53857625 5.2,10.3 C5.2,12.4462566 6.55228763,14.2766695 8.45130937,14.9856852 C8.30209524,14.9951801 8.15161049,15 8,15 C4.13400675,15 1,11.8659932 1,8 C1,4.13400675 4.13400675,1 8,1 C11.8659932,1 15,4.13400675 15,8 C15,8.25748989 14.9860973,8.51173264 14.9590017,8.76201856 Z"/>
  </g>
</svg>
