<svg viewBox="0 0 16 16" xmlns="http://www.w3.org/2000/svg"
	 width="16" height="16">
	<path
		d="M14.666667 13.333333v1.333334H10.666667V8h1.333333v5.333333zM11.333333 1.333333H1.333333v6h1.333334V2.666667h7.863333L13.333333 5.219999V7.333333h1.333334v-2.666667zM5.333333 8h-1.333333v2a0.666667 0.666667 0 0 1-1.333333 0v-2H1.333333v2a1.976667 1.976667 0 0 0 0.513333 1.333333A1.976667 1.976667 0 0 0 1.333333 12.666667v2h1.333334v-2a0.666667 0.666667 0 0 1 1.333333 0v2h1.333333v-2a1.976667 1.976667 0 0 0-0.513333-1.333334A1.976667 1.976667 0 0 0 5.333333 10z m3.333334 0l-0.666667 0.89L7.333333 8h-1.333333v6.666667h1.333333V10.224L8 11.074667 8.666667 10.224V14.666667h1.333333V8z"
		fill="#6E6E6E"/>
</svg>
