<!-- Copyright 2000-2021 JetBrains s.r.o. Use of this source code is governed by the Apache 2.0 license that can be found in the LICENSE file. -->
<svg width="16" height="16" viewBox="0 0 16 16" fill="none" xmlns="http://www.w3.org/2000/svg">
<path d="M13.845 7.83594C13.845 8.28125 13.5403 8.58594 13.0872 8.58594L5.74341 8.58594L4.43091 8.53125L6.32153 10.2188L7.46216 11.3828C7.60278 11.5156 7.68091 11.7031 7.68091 11.9141C7.68091 12.3203 7.37622 12.625 6.96216 12.625C6.75903 12.625 6.57935 12.5547 6.41528 12.3906L2.40747 8.39844C2.25122 8.24219 2.16528 8.04688 2.16528 7.83594C2.16528 7.63281 2.25122 7.4375 2.40747 7.28125L6.41528 3.28906C6.57935 3.13281 6.75903 3.05469 6.96216 3.05469C7.37622 3.05469 7.68091 3.35938 7.68091 3.76563C7.68091 3.97656 7.60278 4.16406 7.46216 4.29688L6.32153 5.46094L4.4231 7.14844L5.74341 7.09375L13.0872 7.09375C13.5403 7.09375 13.845 7.39844 13.845 7.83594Z" fill="#6E6E6E"/>
</svg>
