<!-- Copyright 2000-2021 JetBrains s.r.o. Use of this source code is governed by the Apache 2.0 license that can be found in the LICENSE file. -->
<svg xmlns="http://www.w3.org/2000/svg" width="16" height="16" viewBox="0 0 16 16">
  <g fill="none" fill-rule="evenodd">
    <path fill="#9AA7B0" fill-opacity=".8" d="M7.9844,4 L6.6964,2.711 C6.3044,2.32 5.5324,2 4.9784,2 L1.0504,2 C1.0234,2 1.0004,2.022 1.0004,2.051 L1.0004,13 L8,13 L8,8 L15.0004,8 L15.0004,4 L7.9844,4 Z"/>
    <polygon fill="#40B6E0" points="13 16 16 16 16 13 13 13"/>
    <polygon fill="#40B6E0" points="13 12 16 12 16 9 13 9"/>
    <polygon fill="#40B6E0" points="9 16 12 16 12 13 9 13"/>
    <polygon fill="#40B6E0" points="9 12 12 12 12 9 9 9"/>
  </g>
</svg>
