<svg width="16" height="16" viewBox="0 0 16 16" fill="none"  xmlns="http://www.w3.org/2000/svg">
  <path fill-rule="evenodd" d="m1.2538 16.022h9.6163l-0.99027-2.334-0.38734-0.83702-0.40096-0.03079h-5.1247v-8.9172c0-0.15265-0.067901-0.52489 0.048301-0.64027 0.073078-0.072556 0.21994-0.047945 0.31342-0.047945h6.9334c0.20344 0 0.79758-0.099828 0.94647 0.047945 0.0908 0.0901 0.0483 0.3147 0.0483 0.43081v5.476c0 0.13053-0.03465 0.32066 0.01819 0.44257 0.0864 0.19926 0.54993 0.37168 0.73544 0.47665 0.6598 0.37339 1.302 0.82646 1.9896 1.1455v-9.1865c0-0.48543-0.0031-0.98972-0.28698-1.4064-0.59151-0.86949-1.8395-0.59847-2.7577-0.59847h-7.5061c-0.9301 0-2.3047-0.29489-2.9178 0.56855-0.33614 0.47341-0.27762 1.006-0.27762 1.556v2.753z" fill="#9AA7B0"/>
  <path fill-rule="evenodd"  d="m10 10 0.52227 1.3005 1.293 3.1099 0.46727 1.1309 0.21067 0.45156 0.66975 0.02906h1.8428v-2.1769c0-0.21487 0.08141-0.65274-0.02833-0.83885-0.07554-0.1282-0.2887-0.21195-0.41178-0.28407-0.3043-0.17834-0.60558-0.36245-0.90764-0.5448-0.77799-0.46971-1.5617-0.92969-2.3378-1.4027-0.42018-0.25612-0.86153-0.60196-1.3202-0.77456z" fill="#297FA5"/>
</svg>
