<!-- Copyright 2000-2021 JetBrains s.r.o. Use of this source code is governed by the Apache 2.0 license that can be found in the LICENSE file. -->
<svg width="16" height="16" viewBox="0 0 16 16" fill="none" xmlns="http://www.w3.org/2000/svg">
<path d="M2.16528 7.84375C2.16528 7.39844 2.46997 7.09375 2.9231 7.09375L10.2668 7.09375L11.5793 7.14844L9.68872 5.46094L8.5481 4.29687C8.40747 4.16406 8.32935 3.97656 8.32935 3.76562C8.32935 3.35937 8.63403 3.05469 9.0481 3.05469C9.25122 3.05469 9.43091 3.125 9.59497 3.28906L13.6028 7.28125C13.759 7.4375 13.845 7.63281 13.845 7.84375C13.845 8.04688 13.759 8.24219 13.6028 8.39844L9.59497 12.3906C9.43091 12.5469 9.25122 12.625 9.0481 12.625C8.63403 12.625 8.32935 12.3203 8.32935 11.9141C8.32935 11.7031 8.40747 11.5156 8.5481 11.3828L9.68872 10.2187L11.5872 8.53125L10.2668 8.58594L2.9231 8.58594C2.46997 8.58594 2.16528 8.28125 2.16528 7.84375Z" fill="#6E6E6E"/>
</svg>
