<?xml version="1.0" encoding="UTF-8" standalone="no"?>
<!-- Uploaded to: SVG Repo, www.svgrepo.com, Generator: SVG Repo Mixer Tools -->

<svg
   width="16"
   height="16"
   viewBox="0 0 0.48 0.48"
   fill="none"
   version="1.1"
   id="svg1"
   sodipodi:docname="A.svg"
   inkscape:version="1.4.2 (ebf0e94, 2025-05-08)"
   xmlns:inkscape="http://www.inkscape.org/namespaces/inkscape"
   xmlns:sodipodi="http://sodipodi.sourceforge.net/DTD/sodipodi-0.dtd"
   xmlns="http://www.w3.org/2000/svg"
   xmlns:svg="http://www.w3.org/2000/svg">
  <defs
     id="defs1" />
  <sodipodi:namedview
     id="namedview1"
     pagecolor="#ffffff"
     bordercolor="#000000"
     borderopacity="0.25"
     inkscape:showpageshadow="2"
     inkscape:pageopacity="0.0"
     inkscape:pagecheckerboard="0"
     inkscape:deskcolor="#d1d1d1"
     inkscape:zoom="12.723714"
     inkscape:cx="54.897494"
     inkscape:cy="25.424967"
     inkscape:window-width="2494"
     inkscape:window-height="1371"
     inkscape:window-x="0"
     inkscape:window-y="0"
     inkscape:window-maximized="1"
     inkscape:current-layer="svg1" />
  <path
     style="fill:#6e6e6e;fill-opacity:0;stroke-width:0.0206363"
     d="M 4.33362,21.975593 C 4.1655225,21.947921 3.9365124,21.827275 3.8078433,21.698605 3.6734073,21.564169 3.556131,21.33668 3.5237211,21.147474 c -0.07447,-0.434755 0.1910799,-0.88897 0.6269823,-1.072433 0.1019397,-0.0429 0.1513365,-0.04744 0.6248844,-0.05738 L 5.2897827,20.006879 8.1949128,11.29163 C 10.308432,4.9511757 11.117454,2.5492491 11.16394,2.4768077 11.34743,2.1908626 11.664765,2.0159332 12,2.0159332 c 0.335235,0 0.65257,0.1749294 0.83606,0.4608745 0.04649,0.072441 0.855508,2.474368 2.969027,8.8148223 l 2.90513,8.715249 0.514195,0.01079 c 0.473548,0.0099 0.522945,0.01447 0.624885,0.05738 0.435902,0.183463 0.701452,0.637678 0.626982,1.072433 -0.03241,0.189206 -0.149686,0.416695 -0.284122,0.551131 -0.13928,0.13928 -0.359816,0.249969 -0.557086,0.279607 -0.09575,0.01439 -0.76695,0.01962 -1.981084,0.01544 l -1.836274,-0.0063 -0.122152,-0.04621 c -0.48418,-0.183157 -0.761159,-0.650321 -0.663439,-1.118985 0.06832,-0.327667 0.246952,-0.559912 0.543876,-0.70711 l 0.176535,-0.08752 0.429838,-0.007 c 0.307893,-0.005 0.429839,-0.01374 0.429839,-0.03086 0,-0.01314 -0.373746,-1.145264 -0.830547,-2.515823 L 14.951117,14.981943 H 12 9.0488832 L 8.2183368,17.47387 c -0.4568007,1.370559 -0.8305467,2.50268 -0.8305467,2.515823 0,0.01712 0.1219458,0.02587 0.4298385,0.03086 l 0.4298385,0.007 0.176535,0.08752 c 0.6126051,0.303695 0.7537068,1.070151 0.2870877,1.559446 -0.128667,0.13492 -0.2243985,0.197698 -0.4066338,0.266662 l -0.1221687,0.04623 -1.867584,0.0035 c -1.0365198,0.0019 -1.9180905,-0.0049 -1.9810833,-0.01523 z m 9.94669,-8.990281 c 0,-0.02192 -2.266371,-6.8183203 -2.277336,-6.8292853 -0.0084,-0.00842 -2.2832836,6.7957663 -2.2832836,6.8293563 0,0.0085 1.0261396,0.01548 2.2803096,0.01548 1.25417,0 2.28031,-0.007 2.28031,-0.01555 z"
     id="path2" />
  <path
     style="fill:#6e6e6e;fill-opacity:0;stroke-width:0.0206363"
     d="M 4.33362,21.975593 C 4.1655225,21.947921 3.9365124,21.827275 3.8078433,21.698605 3.6734073,21.564169 3.556131,21.33668 3.5237211,21.147474 c -0.07447,-0.434755 0.1910799,-0.88897 0.6269823,-1.072433 0.1019397,-0.0429 0.1513365,-0.04744 0.6248844,-0.05738 L 5.2897827,20.006879 8.1949128,11.29163 C 10.308432,4.9511757 11.117454,2.5492491 11.16394,2.4768077 11.34743,2.1908626 11.664765,2.0159332 12,2.0159332 c 0.335235,0 0.65257,0.1749294 0.83606,0.4608745 0.04649,0.072441 0.855508,2.474368 2.969027,8.8148223 l 2.90513,8.715249 0.514195,0.01079 c 0.473548,0.0099 0.522945,0.01447 0.624885,0.05738 0.435902,0.183463 0.701452,0.637678 0.626982,1.072433 -0.03241,0.189206 -0.149686,0.416695 -0.284122,0.551131 -0.13928,0.13928 -0.359816,0.249969 -0.557086,0.279607 -0.09575,0.01439 -0.76695,0.01962 -1.981084,0.01544 l -1.836274,-0.0063 -0.122152,-0.04621 c -0.48418,-0.183157 -0.761159,-0.650321 -0.663439,-1.118985 0.06832,-0.327667 0.246952,-0.559912 0.543876,-0.70711 l 0.176535,-0.08752 0.429838,-0.007 c 0.307893,-0.005 0.429839,-0.01374 0.429839,-0.03086 0,-0.01314 -0.373746,-1.145264 -0.830547,-2.515823 L 14.951117,14.981943 H 12 9.0488832 L 8.2183368,17.47387 c -0.4568007,1.370559 -0.8305467,2.50268 -0.8305467,2.515823 0,0.01712 0.1219458,0.02587 0.4298385,0.03086 l 0.4298385,0.007 0.176535,0.08752 c 0.6126051,0.303695 0.7537068,1.070151 0.2870877,1.559446 -0.128667,0.13492 -0.2243985,0.197698 -0.4066338,0.266662 l -0.1221687,0.04623 -1.867584,0.0035 c -1.0365198,0.0019 -1.9180905,-0.0049 -1.9810833,-0.01523 z m 9.94669,-8.990281 c 0,-0.02192 -2.266371,-6.8183203 -2.277336,-6.8292853 -0.0084,-0.00842 -2.2832836,6.7957663 -2.2832836,6.8293563 0,0.0085 1.0261396,0.01548 2.2803096,0.01548 1.25417,0 2.28031,-0.007 2.28031,-0.01555 z"
     id="path3" />
  <path
     style="fill:#6e6e6e;fill-opacity:0;stroke-width:0.0206363"
     d="M 4.33362,21.975593 C 4.1655225,21.947921 3.9365124,21.827275 3.8078433,21.698605 3.6734073,21.564169 3.556131,21.33668 3.5237211,21.147474 c -0.07447,-0.434755 0.1910799,-0.88897 0.6269823,-1.072433 0.1019397,-0.0429 0.1513365,-0.04744 0.6248844,-0.05738 L 5.2897827,20.006879 8.1949128,11.29163 C 10.308432,4.9511757 11.117454,2.5492491 11.16394,2.4768077 11.34743,2.1908626 11.664765,2.0159332 12,2.0159332 c 0.335235,0 0.65257,0.1749294 0.83606,0.4608745 0.04649,0.072441 0.855508,2.474368 2.969027,8.8148223 l 2.90513,8.715249 0.514195,0.01079 c 0.473548,0.0099 0.522945,0.01447 0.624885,0.05738 0.435902,0.183463 0.701452,0.637678 0.626982,1.072433 -0.03241,0.189206 -0.149686,0.416695 -0.284122,0.551131 -0.13928,0.13928 -0.359816,0.249969 -0.557086,0.279607 -0.09575,0.01439 -0.76695,0.01962 -1.981084,0.01544 l -1.836274,-0.0063 -0.122152,-0.04621 c -0.48418,-0.183157 -0.761159,-0.650321 -0.663439,-1.118985 0.06832,-0.327667 0.246952,-0.559912 0.543876,-0.70711 l 0.176535,-0.08752 0.429838,-0.007 c 0.307893,-0.005 0.429839,-0.01374 0.429839,-0.03086 0,-0.01314 -0.373746,-1.145264 -0.830547,-2.515823 L 14.951117,14.981943 H 12 9.0488832 L 8.2183368,17.47387 c -0.4568007,1.370559 -0.8305467,2.50268 -0.8305467,2.515823 0,0.01712 0.1219458,0.02587 0.4298385,0.03086 l 0.4298385,0.007 0.176535,0.08752 c 0.6126051,0.303695 0.7537068,1.070151 0.2870877,1.559446 -0.128667,0.13492 -0.2243985,0.197698 -0.4066338,0.266662 l -0.1221687,0.04623 -1.867584,0.0035 c -1.0365198,0.0019 -1.9180905,-0.0049 -1.9810833,-0.01523 z m 9.94669,-8.990281 c 0,-0.02192 -2.266371,-6.8183203 -2.277336,-6.8292853 -0.0084,-0.00842 -2.2832836,6.7957663 -2.2832836,6.8293563 0,0.0085 1.0261396,0.01548 2.2803096,0.01548 1.25417,0 2.28031,-0.007 2.28031,-0.01555 z"
     id="path4" />
  <path
     style="fill:#6e6e6e;fill-opacity:0;stroke-width:0.0206363"
     d="M 4.33362,21.975593 C 4.1655225,21.947921 3.9365124,21.827275 3.8078433,21.698605 3.6734073,21.564169 3.556131,21.33668 3.5237211,21.147474 c -0.07447,-0.434755 0.1910799,-0.88897 0.6269823,-1.072433 0.1019397,-0.0429 0.1513365,-0.04744 0.6248844,-0.05738 L 5.2897827,20.006879 8.1949128,11.29163 C 10.308432,4.9511757 11.117454,2.5492491 11.16394,2.4768077 11.34743,2.1908626 11.664765,2.0159332 12,2.0159332 c 0.335235,0 0.65257,0.1749294 0.83606,0.4608745 0.04649,0.072441 0.855508,2.474368 2.969027,8.8148223 l 2.90513,8.715249 0.514195,0.01079 c 0.473548,0.0099 0.522945,0.01447 0.624885,0.05738 0.435902,0.183463 0.701452,0.637678 0.626982,1.072433 -0.03241,0.189206 -0.149686,0.416695 -0.284122,0.551131 -0.13928,0.13928 -0.359816,0.249969 -0.557086,0.279607 -0.09575,0.01439 -0.76695,0.01962 -1.981084,0.01544 l -1.836274,-0.0063 -0.122152,-0.04621 c -0.48418,-0.183157 -0.761159,-0.650321 -0.663439,-1.118985 0.06832,-0.327667 0.246952,-0.559912 0.543876,-0.70711 l 0.176535,-0.08752 0.429838,-0.007 c 0.307893,-0.005 0.429839,-0.01374 0.429839,-0.03086 0,-0.01314 -0.373746,-1.145264 -0.830547,-2.515823 L 14.951117,14.981943 H 12 9.0488832 L 8.2183368,17.47387 c -0.4568007,1.370559 -0.8305467,2.50268 -0.8305467,2.515823 0,0.01712 0.1219458,0.02587 0.4298385,0.03086 l 0.4298385,0.007 0.176535,0.08752 c 0.6126051,0.303695 0.7537068,1.070151 0.2870877,1.559446 -0.128667,0.13492 -0.2243985,0.197698 -0.4066338,0.266662 l -0.1221687,0.04623 -1.867584,0.0035 c -1.0365198,0.0019 -1.9180905,-0.0049 -1.9810833,-0.01523 z m 9.94669,-8.990281 c 0,-0.02192 -2.266371,-6.8183203 -2.277336,-6.8292853 -0.0084,-0.00842 -2.2832836,6.7957663 -2.2832836,6.8293563 0,0.0085 1.0261396,0.01548 2.2803096,0.01548 1.25417,0 2.28031,-0.007 2.28031,-0.01555 z"
     id="path5" />
  <path
     style="fill:#6e6e6e;fill-opacity:0;stroke-width:0.0206363"
     d="M 4.33362,21.975593 C 4.1655225,21.947921 3.9365124,21.827275 3.8078433,21.698605 3.6734073,21.564169 3.556131,21.33668 3.5237211,21.147474 c -0.07447,-0.434755 0.1910799,-0.88897 0.6269823,-1.072433 0.1019397,-0.0429 0.1513365,-0.04744 0.6248844,-0.05738 L 5.2897827,20.006879 8.1949128,11.29163 C 10.308432,4.9511757 11.117454,2.5492491 11.16394,2.4768077 11.34743,2.1908626 11.664765,2.0159332 12,2.0159332 c 0.335235,0 0.65257,0.1749294 0.83606,0.4608745 0.04649,0.072441 0.855508,2.474368 2.969027,8.8148223 l 2.90513,8.715249 0.514195,0.01079 c 0.473548,0.0099 0.522945,0.01447 0.624885,0.05738 0.435902,0.183463 0.701452,0.637678 0.626982,1.072433 -0.03241,0.189206 -0.149686,0.416695 -0.284122,0.551131 -0.13928,0.13928 -0.359816,0.249969 -0.557086,0.279607 -0.09575,0.01439 -0.76695,0.01962 -1.981084,0.01544 l -1.836274,-0.0063 -0.122152,-0.04621 c -0.48418,-0.183157 -0.761159,-0.650321 -0.663439,-1.118985 0.06832,-0.327667 0.246952,-0.559912 0.543876,-0.70711 l 0.176535,-0.08752 0.429838,-0.007 c 0.307893,-0.005 0.429839,-0.01374 0.429839,-0.03086 0,-0.01314 -0.373746,-1.145264 -0.830547,-2.515823 L 14.951117,14.981943 H 12 9.0488832 L 8.2183368,17.47387 c -0.4568007,1.370559 -0.8305467,2.50268 -0.8305467,2.515823 0,0.01712 0.1219458,0.02587 0.4298385,0.03086 l 0.4298385,0.007 0.176535,0.08752 c 0.6126051,0.303695 0.7537068,1.070151 0.2870877,1.559446 -0.128667,0.13492 -0.2243985,0.197698 -0.4066338,0.266662 l -0.1221687,0.04623 -1.867584,0.0035 c -1.0365198,0.0019 -1.9180905,-0.0049 -1.9810833,-0.01523 z m 9.94669,-8.990281 c 0,-0.02192 -2.266371,-6.8183203 -2.277336,-6.8292853 -0.0084,-0.00842 -2.2832836,6.7957663 -2.2832836,6.8293563 0,0.0085 1.0261396,0.01548 2.2803096,0.01548 1.25417,0 2.28031,-0.007 2.28031,-0.01555 z"
     id="path6" />
  <path
     style="fill:#6e6e6e;fill-opacity:0;stroke-width:0.0206363"
     d="M 4.33362,21.975593 C 4.1655225,21.947921 3.9365124,21.827275 3.8078433,21.698605 3.6734073,21.564169 3.556131,21.33668 3.5237211,21.147474 c -0.07447,-0.434755 0.1910799,-0.88897 0.6269823,-1.072433 0.1019397,-0.0429 0.1513365,-0.04744 0.6248844,-0.05738 L 5.2897827,20.006879 8.1949128,11.29163 C 10.308432,4.9511757 11.117454,2.5492491 11.16394,2.4768077 11.34743,2.1908626 11.664765,2.0159332 12,2.0159332 c 0.335235,0 0.65257,0.1749294 0.83606,0.4608745 0.04649,0.072441 0.855508,2.474368 2.969027,8.8148223 l 2.90513,8.715249 0.514195,0.01079 c 0.473548,0.0099 0.522945,0.01447 0.624885,0.05738 0.435902,0.183463 0.701452,0.637678 0.626982,1.072433 -0.03241,0.189206 -0.149686,0.416695 -0.284122,0.551131 -0.13928,0.13928 -0.359816,0.249969 -0.557086,0.279607 -0.09575,0.01439 -0.76695,0.01962 -1.981084,0.01544 l -1.836274,-0.0063 -0.122152,-0.04621 c -0.48418,-0.183157 -0.761159,-0.650321 -0.663439,-1.118985 0.06832,-0.327667 0.246952,-0.559912 0.543876,-0.70711 l 0.176535,-0.08752 0.429838,-0.007 c 0.307893,-0.005 0.429839,-0.01374 0.429839,-0.03086 0,-0.01314 -0.373746,-1.145264 -0.830547,-2.515823 L 14.951117,14.981943 H 12 9.0488832 L 8.2183368,17.47387 c -0.4568007,1.370559 -0.8305467,2.50268 -0.8305467,2.515823 0,0.01712 0.1219458,0.02587 0.4298385,0.03086 l 0.4298385,0.007 0.176535,0.08752 c 0.6126051,0.303695 0.7537068,1.070151 0.2870877,1.559446 -0.128667,0.13492 -0.2243985,0.197698 -0.4066338,0.266662 l -0.1221687,0.04623 -1.867584,0.0035 c -1.0365198,0.0019 -1.9180905,-0.0049 -1.9810833,-0.01523 z m 9.94669,-8.990281 c 0,-0.02192 -2.266371,-6.8183203 -2.277336,-6.8292853 -0.0084,-0.00842 -2.2832836,6.7957663 -2.2832836,6.8293563 0,0.0085 1.0261396,0.01548 2.2803096,0.01548 1.25417,0 2.28031,-0.007 2.28031,-0.01555 z"
     id="path7" />
  <path
     style="fill:#6e6e6e;fill-opacity:0;stroke-width:0.0206363"
     d="M 4.33362,21.975593 C 4.1655225,21.947921 3.9365124,21.827275 3.8078433,21.698605 3.6734073,21.564169 3.556131,21.33668 3.5237211,21.147474 c -0.07447,-0.434755 0.1910799,-0.88897 0.6269823,-1.072433 0.1019397,-0.0429 0.1513365,-0.04744 0.6248844,-0.05738 L 5.2897827,20.006879 8.1949128,11.29163 C 10.308432,4.9511757 11.117454,2.5492491 11.16394,2.4768077 11.34743,2.1908626 11.664765,2.0159332 12,2.0159332 c 0.335235,0 0.65257,0.1749294 0.83606,0.4608745 0.04649,0.072441 0.855508,2.474368 2.969027,8.8148223 l 2.90513,8.715249 0.514195,0.01079 c 0.473548,0.0099 0.522945,0.01447 0.624885,0.05738 0.435902,0.183463 0.701452,0.637678 0.626982,1.072433 -0.03241,0.189206 -0.149686,0.416695 -0.284122,0.551131 -0.13928,0.13928 -0.359816,0.249969 -0.557086,0.279607 -0.09575,0.01439 -0.76695,0.01962 -1.981084,0.01544 l -1.836274,-0.0063 -0.122152,-0.04621 c -0.48418,-0.183157 -0.761159,-0.650321 -0.663439,-1.118985 0.06832,-0.327667 0.246952,-0.559912 0.543876,-0.70711 l 0.176535,-0.08752 0.429838,-0.007 c 0.307893,-0.005 0.429839,-0.01374 0.429839,-0.03086 0,-0.01314 -0.373746,-1.145264 -0.830547,-2.515823 L 14.951117,14.981943 H 12 9.0488832 L 8.2183368,17.47387 c -0.4568007,1.370559 -0.8305467,2.50268 -0.8305467,2.515823 0,0.01712 0.1219458,0.02587 0.4298385,0.03086 l 0.4298385,0.007 0.176535,0.08752 c 0.6126051,0.303695 0.7537068,1.070151 0.2870877,1.559446 -0.128667,0.13492 -0.2243985,0.197698 -0.4066338,0.266662 l -0.1221687,0.04623 -1.867584,0.0035 c -1.0365198,0.0019 -1.9180905,-0.0049 -1.9810833,-0.01523 z m 9.94669,-8.990281 c 0,-0.02192 -2.266371,-6.8183203 -2.277336,-6.8292853 -0.0084,-0.00842 -2.2832836,6.7957663 -2.2832836,6.8293563 0,0.0085 1.0261396,0.01548 2.2803096,0.01548 1.25417,0 2.28031,-0.007 2.28031,-0.01555 z"
     id="path8" />
  <path
     style="fill:#6e6e6e;fill-opacity:0;stroke-width:0.0206363"
     d="M 4.33362,21.975593 C 4.1655225,21.947921 3.9365124,21.827275 3.8078433,21.698605 3.6734073,21.564169 3.556131,21.33668 3.5237211,21.147474 c -0.07447,-0.434755 0.1910799,-0.88897 0.6269823,-1.072433 0.1019397,-0.0429 0.1513365,-0.04744 0.6248844,-0.05738 L 5.2897827,20.006879 8.1949128,11.29163 C 10.308432,4.9511757 11.117454,2.5492491 11.16394,2.4768077 11.34743,2.1908626 11.664765,2.0159332 12,2.0159332 c 0.335235,0 0.65257,0.1749294 0.83606,0.4608745 0.04649,0.072441 0.855508,2.474368 2.969027,8.8148223 l 2.90513,8.715249 0.514195,0.01079 c 0.473548,0.0099 0.522945,0.01447 0.624885,0.05738 0.435902,0.183463 0.701452,0.637678 0.626982,1.072433 -0.03241,0.189206 -0.149686,0.416695 -0.284122,0.551131 -0.13928,0.13928 -0.359816,0.249969 -0.557086,0.279607 -0.09575,0.01439 -0.76695,0.01962 -1.981084,0.01544 l -1.836274,-0.0063 -0.122152,-0.04621 c -0.48418,-0.183157 -0.761159,-0.650321 -0.663439,-1.118985 0.06832,-0.327667 0.246952,-0.559912 0.543876,-0.70711 l 0.176535,-0.08752 0.429838,-0.007 c 0.307893,-0.005 0.429839,-0.01374 0.429839,-0.03086 0,-0.01314 -0.373746,-1.145264 -0.830547,-2.515823 L 14.951117,14.981943 H 12 9.0488832 L 8.2183368,17.47387 c -0.4568007,1.370559 -0.8305467,2.50268 -0.8305467,2.515823 0,0.01712 0.1219458,0.02587 0.4298385,0.03086 l 0.4298385,0.007 0.176535,0.08752 c 0.6126051,0.303695 0.7537068,1.070151 0.2870877,1.559446 -0.128667,0.13492 -0.2243985,0.197698 -0.4066338,0.266662 l -0.1221687,0.04623 -1.867584,0.0035 c -1.0365198,0.0019 -1.9180905,-0.0049 -1.9810833,-0.01523 z m 9.94669,-8.990281 c 0,-0.02192 -2.266371,-6.8183203 -2.277336,-6.8292853 -0.0084,-0.00842 -2.2832836,6.7957663 -2.2832836,6.8293563 0,0.0085 1.0261396,0.01548 2.2803096,0.01548 1.25417,0 2.28031,-0.007 2.28031,-0.01555 z"
     id="path9" />
  <path
     style="fill:#6e6e6e;fill-opacity:1;stroke-width:0.000412726"
     d="m 0.08669201,0.43932517 c -0.0034,-5.53e-4 -0.0079,-0.003 -0.01051,-0.0055 -0.0027,-0.0027 -0.005,-0.0072 -0.0057,-0.01102 -0.0015,-0.0087 0.0038,-0.01778 0.01254,-0.02145 0.002,-8.58e-4 0.003,-9.49e-4 0.0125,-0.0011 l 0.01028,-2.16e-4 0.0581,-0.174305 c 0.04227,-0.126809 0.05845,-0.174848 0.05938,-0.176296 0.0037,-0.0057 0.01002,-0.0092 0.01672,-0.0092 0.0067,0 0.01305,0.0035 0.01672,0.0092 9.3e-4,0.0014 0.01711,0.04949 0.05938,0.176296 l 0.0581,0.174305 0.01028,2.16e-4 c 0.0095,1.98e-4 0.01046,2.89e-4 0.0125,0.0011 0.0087,0.0037 0.01403,0.01275 0.01254,0.02145 -6.49e-4,0.0038 -0.003,0.0083 -0.0057,0.01102 -0.0028,0.0028 -0.0072,0.005 -0.01114,0.0056 -0.0019,2.88e-4 -0.01534,3.92e-4 -0.03962,3.09e-4 l -0.03673,-1.26e-4 -0.0024,-9.25e-4 c -0.0097,-0.0037 -0.01522,-0.01301 -0.01327,-0.02238 0.0014,-0.0066 0.0049,-0.0112 0.01088,-0.01414 l 0.0035,-0.0018 0.0086,-1.4e-4 c 0.0062,-1e-4 0.0086,-2.75e-4 0.0086,-6.17e-4 0,-2.63e-4 -0.0075,-0.0229 -0.01661,-0.05032 l -0.01661,-0.04984 h -0.059002 -0.059022 l -0.01661,0.04984 c -0.0091,0.02741 -0.01661,0.05005 -0.01661,0.05032 0,3.43e-4 0.0024,5.18e-4 0.0086,6.17e-4 l 0.0086,1.4e-4 0.0035,0.0018 c 0.01225,0.0061 0.01507,0.0214 0.0057,0.03119 -0.0026,0.0027 -0.0045,0.004 -0.0081,0.0053 l -0.0024,9.25e-4 -0.03735,7e-5 c -0.02073,3.8e-5 -0.03836,-9.8e-5 -0.03962,-3.05e-4 z m 0.198934,-0.179805 c 0,-4.39e-4 -0.04533,-0.136367 -0.04555,-0.136586 -1.68e-4,-1.68e-4 -0.04567,0.135915 -0.04567,0.136587 0,1.7e-4 0.02052,3.1e-4 0.04561,3.1e-4 0.02508,0 0.04561,-1.4e-4 0.04561,-3.11e-4 z"
     id="path10" />
</svg>
