<!-- Copyright 2000-2021 JetBrains s.r.o. Use of this source code is governed by the Apache 2.0 license that can be found in the LICENSE file. -->
<svg width="16" height="16" viewBox="0 0 16 16" fill="none" xmlns="http://www.w3.org/2000/svg">
<path d="M8.00122 13.6797C8.44653 13.6797 8.75122 13.375 8.75122 12.9219V5.57812L8.69653 4.26562L10.384 6.15625L11.5481 7.29688C11.6809 7.4375 11.8684 7.51562 12.0793 7.51562C12.4856 7.51562 12.7903 7.21094 12.7903 6.79688C12.7903 6.59375 12.72 6.41406 12.5559 6.25L8.56372 2.24219C8.40747 2.08594 8.21216 2 8.00122 2C7.7981 2 7.60278 2.08594 7.44653 2.24219L3.45435 6.25C3.2981 6.41406 3.21997 6.59375 3.21997 6.79688C3.21997 7.21094 3.52466 7.51562 3.93091 7.51562C4.14185 7.51562 4.32935 7.4375 4.46216 7.29688L5.62622 6.15625L7.31372 4.25781L7.25903 5.57812V12.9219C7.25903 13.375 7.56372 13.6797 8.00122 13.6797Z" fill="#6E6E6E"/>
</svg>
