<svg xmlns="http://www.w3.org/2000/svg" width="16" height="16" viewBox="0 0 16 16">
  <g fill="none" fill-rule="evenodd">
    <polygon fill="#9AA7B0" points="13.171 11.857 14.638 11.857 14.638 16.019 13.171 16.019" transform="rotate(-45 13.905 13.938)"/>
    <path fill="#9AA7B0" d="M10.2333333,14.1666667 C8.11624179,14.1666667 6.4,12.4504249 6.4,10.3333333 C6.4,8.21624179 8.11624179,6.5 10.2333333,6.5 C12.3504249,6.5 14.0666667,8.21624179 14.0666667,10.3333333 C14.0666667,12.4504249 12.3504249,14.1666667 10.2333333,14.1666667 Z M10.2333333,12.8333333 C11.6140452,12.8333333 12.7333333,11.7140452 12.7333333,10.3333333 C12.7333333,8.95262146 11.6140452,7.83333333 10.2333333,7.83333333 C8.85262146,7.83333333 7.73333333,8.95262146 7.73333333,10.3333333 C7.73333333,11.7140452 8.85262146,12.8333333 10.2333333,12.8333333 Z"/>
    <path fill="#62B543" fill-opacity=".6" d="M14.9590017,8.76201856 C14.310257,6.75310534 12.424824,5.3 10.2,5.3 C7.43857625,5.3 5.2,7.53857625 5.2,10.3 C5.2,12.4462566 6.55228763,14.2766695 8.45130937,14.9856852 C8.30209524,14.9951801 8.15161049,15 8,15 C4.13400675,15 1,11.8659932 1,8 C1,4.13400675 4.13400675,1 8,1 C11.8659932,1 15,4.13400675 15,8 C15,8.25748989 14.9860973,8.51173264 14.9590017,8.76201856 Z"/>
  </g>
</svg>
